<svg width="630" height="270" xmlns="http://www.w3.org/2000/svg">

 <g>
  <title>background</title>
  <rect fill="none" id="canvas_background" height="272" width="632" y="-1" x="-1"/>
 </g>
 <g>
  <title>Layer 1</title>
  <g id="svg_7">
   <path id="svg_2" d="m101.638,102.734c30.383,0 51.979,4.468 67.468,10.426l0,-25.022c-13.106,-4.17 -33.808,-8.638 -66.872,-8.638c-42.149,0 -62.255,8.489 -72.234,18.468c-9.234,9.234 -14,21.596 -14,37.532s4.766,28.298 14,37.532c10.128,10.277 29.787,18.468 70.894,18.468c32.915,0 53.17,-4.617 65.681,-17.128c6.851,-6.851 10.425,-16.532 10.425,-33.212l0,-13.851l-91.745,0l0,20.851l64.34,0c0.149,2.383 0.149,7.894 -3.574,11.617c-6.702,6.702 -23.234,8.936 -45.128,8.936c-26.809,0 -40.809,-4.915 -47.362,-11.468c-4.766,-4.915 -7.298,-11.915 -7.298,-21.745c0,-9.532 2.681,-16.979 7.894,-22.191c5.809,-5.809 19.958,-10.575 47.511,-10.575c0,0 -27.553,0 0,0l0,0l0,0z" fill="#000000"/>
   <path id="svg_3" d="m614,83.5l-34.145,0l-54.69,81.863l-54.542,-81.863l-35.623,0l71.393,104l36.214,0l0,0l71.393,-104l0,0z" fill="#000000"/>
   <path id="svg_4" d="m426,11.5l-29.622,0l-193.378,247l30.069,0l192.931,-247z" fill="#C60000"/>
   <path id="svg_5" d="m382.145,98.266c-9.728,-9.83 -28.448,-18.766 -69.571,-18.766c-39.65,0 -59.843,8.787 -69.718,18.766c-8.992,9.085 -13.856,20.404 -13.856,37.234s4.864,28 13.855,37.085c9.728,9.83 29.332,18.915 69.718,18.915s59.843,-8.936 69.571,-18.766c8.992,-9.085 13.856,-20.404 13.856,-37.234c0,-16.979 -4.864,-28.149 -13.855,-37.234zm-69.572,69.234c-26.347,0 -39.96,-5.451 -45.815,-11.344c-4.538,-4.567 -7.758,-10.46 -7.758,-21.656s2.781,-17.237 7.611,-22.098c6.002,-6.04 19.615,-10.902 45.962,-10.902s39.521,5.009 45.669,11.196c4.831,4.862 7.758,10.608 7.758,21.804s-2.781,17.237 -7.611,22.098c-6.148,6.188 -19.468,10.902 -45.816,10.902z" fill="#000000"/>
  </g>
 </g>
</svg>