<?xml version="1.0" encoding="UTF-8" standalone="no"?>
<!-- Created with Inkscape (http://www.inkscape.org/) -->

<svg
   xmlns:dc="http://purl.org/dc/elements/1.1/"
   xmlns:cc="http://creativecommons.org/ns#"
   xmlns:rdf="http://www.w3.org/1999/02/22-rdf-syntax-ns#"
   xmlns:svg="http://www.w3.org/2000/svg"
   xmlns="http://www.w3.org/2000/svg"
   xmlns:sodipodi="http://sodipodi.sourceforge.net/DTD/sodipodi-0.dtd"
   xmlns:inkscape="http://www.inkscape.org/namespaces/inkscape"
   id="svg3766"
   version="1.1"
   inkscape:version="0.48.5 r10040"
   width="530"
   height="530"
   sodipodi:docname="Pittogramma-colori-vettoriale.svg">
  <metadata
     id="metadata3772">
    <rdf:RDF>
      <cc:Work
         rdf:about="">
        <dc:format>image/svg+xml</dc:format>
        <dc:type
           rdf:resource="http://purl.org/dc/dcmitype/StillImage" />
        <dc:title />
      </cc:Work>
    </rdf:RDF>
  </metadata>
  <defs
     id="defs3770" />
  <sodipodi:namedview
     pagecolor="#ffffff"
     bordercolor="#666666"
     borderopacity="1"
     objecttolerance="10"
     gridtolerance="10"
     guidetolerance="10"
     inkscape:pageopacity="0"
     inkscape:pageshadow="2"
     inkscape:window-width="1536"
     inkscape:window-height="801"
     id="namedview3768"
     showgrid="false"
     inkscape:zoom="0.70710678"
     inkscape:cx="296.79265"
     inkscape:cy="121.51861"
     inkscape:window-x="-8"
     inkscape:window-y="-8"
     inkscape:window-maximized="1"
     inkscape:current-layer="svg3766" />
  <path
     style="fill:#8eccc2;fill-opacity:1;fill-rule:nonzero;stroke:none"
     d="M 240.75 2.40625 C 235.08418 2.5832349 223.32084 4.1854959 212 6.46875 C 173.07276 14.319826 137.00076 30.623986 104.28125 55.15625 C 91.797696 64.516105 69.110457 86.584081 58.6875 99.5 C 39.330423 123.4869 23.014084 153.35298 13.59375 182 C 7.7172088 199.87043 4.650471 212.84956 2.0625 232 C 0.87555572 241.54982 0.17642758 251.2501 0.03125 261.09375 C -0.19660901 276.54355 0.89835211 291.70619 3.21875 306.46875 C 3.2447648 306.52823 3.2904567 306.60296 3.3125 306.625 C 4.5872869 307.89979 6.7444063 306.05922 7.3125 303.21875 C 8.6582449 296.49003 15.468233 291.91261 26.25 290.5 C 30.738338 289.91195 31.173544 289.59104 33.5 285 C 36.279045 279.51582 40.530469 275.83926 47.0625 273.3125 C 50.853719 271.84596 56.86682 271.53772 88.5625 271.0625 C 122.01799 270.56088 125.85985 270.3169 128.34375 268.6875 C 132.14477 266.19408 134.76852 261.55614 136.03125 255.03125 C 138.5565 241.98264 143.35586 234.84718 152.21875 230.96875 C 156.64164 229.03328 160.04923 228.53052 173 227.90625 C 181.525 227.49533 195.27482 227.13679 203.5625 227.09375 C 213.88358 227.04015 220.23626 226.53419 223.71875 225.5 C 229.80132 223.69367 237.82241 216.85926 241.78125 210.125 L 244.5 205.5 L 244.78125 104.5625 C 244.93803 45.680048 244.65008 3.2750811 244.125 2.75 C 243.83679 2.4617961 242.63861 2.347255 240.75 2.40625 z M 288.5625 2.40625 C 288.27114 2.4288131 288.04004 2.4678774 287.9375 2.53125 C 287.34447 2.8977642 287 41.134231 287 103.875 C 287 216.36864 286.64939 210.64939 293.96875 217.96875 C 295.99523 219.99523 299.8549 222.7299 302.5625 224.0625 C 307.41043 226.44851 308.02543 226.51901 342 227.03125 C 379.34635 227.59433 379.93566 227.6681 385.84375 233.3125 C 390.95719 238.19772 393.09493 243.31825 393.9375 252.5625 C 394.87945 262.89705 396.94115 266.71966 403.28125 269.875 C 407.96621 272.20662 408.52839 272.23053 436.78125 272.1875 C 452.57763 272.1634 470 272.58011 475.5 273.09375 C 492.86027 274.71501 499.66296 279.76497 502.375 293.09375 L 503.65625 299.5 L 513.59375 300.0625 C 519.04731 300.36849 524.22665 300.70599 525.125 300.8125 C 526.05022 300.92221 527.07676 300.02451 527.46875 298.75 C 528.85804 294.23285 529.28928 250.30866 528.0625 238.78125 C 521.56385 177.71726 494.78736 121.70419 451.46875 78.5 C 418.1058 45.22518 375.79706 21.079008 330.375 9.4375 C 317.48237 6.1331656 292.93286 2.0678042 288.5625 2.40625 z M 243.78125 225.5 C 242.83702 225.52807 240.70408 226.84863 238.4375 228.84375 C 230.46063 235.86527 228.48399 236.23423 193 236.9375 C 158.1018 237.62916 156.40598 237.93219 151.78125 244.15625 C 147.31165 250.17155 146.77415 253.30727 146.0625 279 C 145.40143 302.86675 145.31553 303.63529 142.75 308.59375 C 141.30152 311.39326 138.43282 315.16195 136.375 316.96875 C 129.31749 323.16532 128.14797 323.39144 98 324.03125 C 68.072343 324.66639 65.064384 325.18834 61.625 330.4375 C 60.650514 331.92476 59.787937 334.97917 59.6875 337.21875 L 59.5 341.28125 L 65.65625 342.5625 C 73.011474 344.08989 74.91376 345.04497 80.15625 349.78125 C 85.184623 354.32408 89.006243 361.76775 89.6875 368.375 C 90.123722 372.60574 89.873984 373.93126 88.125 376 L 86 378.5 L 84 376.125 C 82.893024 374.81795 81.73053 372.56795 81.4375 371.125 C 79.766215 362.89518 78.520014 360.24767 74.53125 356.40625 C 69.707834 351.76101 61.902952 349.02167 59.40625 351.09375 C 58.249537 352.05373 57.994557 359.04959 58 391.375 C 58.005127 421.75233 58.133931 428.93271 59.15625 431.84375 C 62.507536 435.9741 65.972554 440.01757 69.5625 443.9375 C 69.583405 443.94105 69.606428 443.96845 69.625 443.96875 C 70.401048 443.98115 70.902339 438.48396 71.21875 426.25 C 71.574743 412.48563 72.046872 407.59125 73.375 404.5 C 77.008994 396.0418 83.350046 392.15739 99.125 388.625 L 101.75 388.03125 L 102.1875 374.625 C 102.59703 362.54993 102.92287 360.70085 105.40625 355.625 C 106.92113 352.5287 109.62367 348.85964 111.40625 347.5 C 117.80697 342.61794 122.01802 341.82667 144.6875 341.25 C 163.81163 340.76352 166.23749 340.5082 169.6875 338.59375 C 176.22631 334.96528 177.38288 331.17868 177.84375 311.75 C 178.1367 299.40006 177.91231 294.59933 177 293.5 C 175.01969 291.11388 168.56801 291.60801 165.3125 294.40625 L 162.5 296.8125 L 162 313.375 C 161.52778 329.0174 161.36842 330.06957 159.1875 332.21875 L 156.875 334.5 L 154.4375 331.6875 C 152.07849 328.97572 152 328.37643 152 313.59375 C 152 297.87329 152.7107 293.7922 156.3125 288.625 C 158.88487 284.93465 165.28344 282.04735 171 282 C 173.475 281.9795 175.96601 281.65408 176.53125 281.25 C 177.0965 280.84592 178.08634 277.82245 178.75 274.5625 C 179.41366 271.30255 181.0875 266.93096 182.46875 264.84375 C 186.85376 258.21755 189.05298 257.62767 211 256.96875 C 234.48247 256.26373 238.29315 255.11377 241.8125 247.84375 C 244.34761 242.60692 246.00233 226.72275 244.125 225.5625 C 244.04267 225.51162 243.91614 225.49599 243.78125 225.5 z M 287.125 227.53125 C 286.99743 227.53461 286.88803 227.57832 286.8125 227.625 C 286.06221 228.0887 285.89605 232.33558 286.25 241.0625 C 287.13092 262.78252 289.49631 265.1403 311.5 266.09375 C 327.49306 266.78676 330.60205 267.7379 337.53125 274.125 C 342.65835 278.851 345.30888 283.37949 347.0625 290.34375 C 347.70014 292.87603 348.74861 295.36787 349.375 295.875 C 350.0014 296.38213 353.95966 296.95031 358.1875 297.15625 C 364.77251 297.477 366.47532 297.97524 370.09375 300.53125 C 375.106 304.07184 378.1576 309.44711 378.78125 315.9375 C 379.28107 321.13923 377.0107 327 374.5 327 C 372.43086 327 370.30312 323.23534 369.46875 318.0625 C 368.49134 312.00282 364.77048 308.37782 358.5 307.4375 C 351.20937 306.3442 350.5088 307.21425 350.53125 317.125 C 350.55515 327.67775 352.68359 332.37129 359.09375 336 C 363.38163 338.42732 364.19777 338.51454 387.5 339 C 410.10131 339.47086 411.77568 339.64032 416.25 341.84375 C 426.41056 346.84745 430 354.86419 430 372.5625 C 430 380.34502 430.38111 384.0571 431.25 384.71875 C 431.9375 385.24227 435.3941 386.18236 438.9375 386.8125 C 447.25938 388.29242 453.65091 392.25767 457.375 398.28125 C 460.66699 403.60592 461.82617 411.61382 461.9375 429.75 C 461.9721 435.3875 462.43002 440 462.9375 440 C 463.44497 440 465.94373 437.55464 468.5 434.5625 L 471.90625 430.59375 C 472.32864 430.06672 472.73781 429.53033 473.15625 429 L 473.03125 392.875 C 472.96105 368.34967 472.58061 356.20036 471.84375 355.3125 C 469.56949 352.57218 459.40562 354.34221 455.3125 358.1875 C 454.0046 359.4162 452.02786 363.43234 450.90625 367.125 C 449.78667 370.81096 447.95804 374.64783 446.84375 375.65625 C 444.87019 377.4423 444.76158 377.41623 442.90625 375.125 C 440.53936 372.20201 440.3559 364.48759 442.53125 359.28125 C 446.32786 350.19468 452.3436 345.92419 464.65625 343.625 L 471.5 342.34375 L 471.4375 337.71875 C 471.3669 332.30033 469.7014 328.70195 466.09375 326.25 C 463.84095 324.71887 459.9059 324.41283 435.5 323.875 C 404.75828 323.19754 401.70616 322.68613 394.65625 316.875 C 392.60562 315.18469 389.70618 311.4881 388.21875 308.65625 C 385.59037 303.65218 385.49679 302.90961 385 282.5 C 384.71886 270.95 384.13246 260.9375 383.6875 260.25 C 382.44989 258.33778 369.57964 258.64778 365.28125 260.6875 C 360.93331 262.75073 358.06228 268.52413 358.03125 275.28125 C 358.00555 280.87891 355.57791 287.35029 353.75 286.75 C 353.05467 286.52166 351.4875 284.85769 350.25 283.03125 C 348.39837 280.29843 348.01318 278.34987 348.03125 272.09375 C 348.05755 263.00399 350.23478 257.42385 355.15625 253.78125 C 360.07553 250.14028 361.53255 249.73549 371.90625 249.09375 C 377.18995 248.76689 381.49003 248.03668 381.6875 247.4375 C 382.31473 245.53428 377.54373 239.54614 373.96875 237.75 C 370.87213 236.19421 366.97252 236.00139 338.4375 236 C 303.09341 235.998 299.86237 235.57368 292.125 229.96875 C 290.10233 228.50355 288.01801 227.50774 287.125 227.53125 z M 250.34375 256.40625 C 249.49722 256.45907 248.26808 257.28151 246.65625 258.84375 C 241.43192 263.90737 236.45763 265.08673 216.5 265.90625 C 195.2745 266.77783 193.01294 267.50976 189.71875 274.8125 C 187.79711 279.07251 187.56482 281.87301 187.0625 306 L 186.5 332.5 L 183.40625 338 C 179.74797 344.50493 172.35872 349.57849 165.125 350.53125 C 155.16086 351.84363 150.00642 353.19804 147.4375 355.21875 C 142.155 359.37397 142 360.73911 142 402.375 L 142 440.8125 L 150.46875 443.53125 C 171.30764 450.16677 173.41443 454.71035 172.84375 492.1875 L 172.5 513.40625 C 176.82438 515.01663 181.1961 516.51833 185.625 517.90625 C 185.6565 517.9082 185.72095 517.90523 185.75 517.90625 C 187.81119 517.97855 188 517.55971 188 512.6875 C 188 506.5362 190.24551 498.4357 192.78125 495.4375 C 196.66122 490.84993 200.07573 489.5171 209.4375 489 L 218.5 488.5 L 219.125 476 C 220.24252 453.73659 225.48188 445.99914 241.84375 442.40625 C 252.7538 440.01053 256.76397 437.7503 259.0625 432.6875 C 260.87827 428.68804 260.9624 425.08958 260.96875 354 C 260.97275 311.86617 260.56868 278.8934 260.0625 278.09375 C 259.34858 276.96591 258.22442 277.50288 254.5 280.78125 C 248.85521 285.74999 243.32883 287.62388 231.78125 288.5 C 218.12056 289.53643 213.3136 294.18726 212.25 307.4375 L 211.75 313.71875 L 222.625 314.21875 C 231.04009 314.58325 234.68558 315.1858 238.78125 316.96875 C 244.88342 319.62519 250.15698 325.2138 251.84375 330.84375 C 252.64826 333.52896 253 348.23273 253 378.75 C 253 421.29596 252.92995 422.84343 251 425.125 L 249 427.5 L 246.5 424.6875 C 244.10343 422.00109 244 421.32865 244 408.96875 C 244 392.98568 244.51098 393.48193 228.28125 394.28125 C 215.95558 394.88829 212.46453 396.12667 208.59375 401.3125 C 206.68861 403.86488 206.45263 405.84914 206 422.15625 C 205.54449 438.56723 205.31602 440.29119 203.53125 441.59375 C 201.79008 442.86448 201.34514 442.81071 199.53125 441 C 197.71679 439.18871 197.43607 437.25515 196.90625 423.71875 C 196.57849 415.34457 196.73409 406.35489 197.25 403.71875 C 198.48289 397.41907 203.29299 391.2451 209.46875 388.0625 C 213.89514 385.78141 215.93764 385.44647 228.46875 385 L 242.5 384.5 L 243.1875 372 C 243.57301 365.125 243.57203 353.30794 243.15625 345.75 C 242.42258 332.41219 242.31225 331.93535 239.5 329 C 235.75217 325.08811 230.93193 323.86013 220.75 324.21875 L 212.5 324.5 L 211.4375 342 C 210.31778 360.63917 209.55679 363.48798 204.125 369.34375 C 200.36722 373.39485 195.29203 375.73985 187.375 377.0625 C 170.66079 379.85485 169.66107 380.15143 166.40625 383.40625 C 163.49674 386.31576 163.15391 387.30614 162.5 395.15625 C 161.59369 406.03641 162.3752 407.72458 168.3125 407.84375 C 179.17769 408.06184 186.12046 414.81673 188.875 427.8125 C 190.65755 436.22246 190.33767 466.6441 188.40625 472.3125 C 187.52955 474.88548 186.21358 477 185.5 477 C 184.78642 477 183.42462 475.0875 182.46875 472.75 C 181.09156 469.3822 180.64444 464.34849 180.25 448.5 C 179.66076 424.82484 178.89806 422.26567 171.65625 419.5 C 169.23741 418.57624 166.18359 417.97118 164.875 418.15625 C 162.6086 418.47678 162.47628 418.92973 162 427.71875 C 161.57504 435.56075 161.15895 437.28238 159.25 439.1875 C 157.10974 441.32346 156.92136 441.35721 155.25 439.6875 C 153.68581 438.12487 153.45454 435.16246 153.1875 412.25 C 152.85028 383.31581 153.33025 380.53068 159.59375 375.03125 C 164.51456 370.71073 169.04131 369.09805 180.625 367.46875 C 192.46556 365.80332 194.72797 365.06378 197.75 361.8125 C 201.17297 358.12987 202 350.87352 202 325.03125 C 202 298.40261 202.79761 293.5581 208.28125 287.3125 C 212.78829 282.1792 218.46186 279.99697 230.3125 278.84375 C 246.04046 277.31322 250.52626 273.93888 251.6875 262.6875 C 252.13237 258.37706 251.75463 256.31822 250.34375 256.40625 z M 272.75 279 L 273.21875 283.96875 C 273.8305 290.33536 277.73887 296.31533 283.0625 299.03125 C 285.39428 300.22083 290.76552 301.50678 295.65625 302.0625 C 308.64004 303.53782 314.2078 306.52416 317.96875 314 C 320.66163 319.35279 320.90281 321.37559 321.09375 338.03125 C 321.20249 347.51632 321.80272 355.26788 322.625 358.0625 C 325.15205 366.65102 331.32149 369.99775 344.71875 370.03125 C 358.01569 370.06455 363.47025 373.17578 368.1875 383.5 C 370.14611 387.78662 370.45158 390.17318 370.46875 400.375 C 370.48705 411.26476 370.3296 412.36129 368.4375 413.625 C 366.68639 414.79456 366.09837 414.79375 364.5 413.625 C 363.07793 412.58515 362.50597 410.62655 362.1875 405.625 L 361.78125 399 L 356.84375 399 C 348.16226 399 346.02124 403.18427 346 420.40625 C 345.991 427.29299 345.62132 429.74456 344.34375 431.15625 C 342.09284 433.64347 340.36617 433.47478 338.4375 430.53125 C 337.09663 428.48482 336.86517 425.75688 337.15625 414.78125 C 337.46681 403.07127 337.7788 401.01417 339.84375 397.40625 C 342.967 391.94927 346.52674 390 353.34375 390 C 356.38893 390 359.16617 389.52822 359.53125 388.9375 C 359.89633 388.34679 359.13887 386.73029 357.84375 385.34375 C 353.67525 380.88101 350.13806 379.69733 339.875 379.40625 C 320.55257 378.85824 312.55556 371.57814 311.15625 353.21875 L 310.5 344.5 L 307.53125 344.15625 C 302.65744 343.60249 297.3263 345.75691 294.8125 349.28125 C 292.58874 352.39895 292.48338 353.36179 292 378.59375 C 291.61549 398.66487 291.18043 405.07461 290.125 406.34375 C 288.39274 408.42676 287.14936 408.43065 284.84375 406.34375 C 283.15831 404.81845 283.01101 402.60477 283.03125 378.09375 C 283.05595 348.19437 283.41463 346.36509 290.34375 340.28125 C 293.92558 337.13635 302.10151 334 306.71875 334 C 309.84327 334 310.48658 331.84079 309 326.53125 C 306.31103 316.92755 298.44345 313 281.9375 313 C 274.42185 313 271.9606 313.33615 270.96875 314.53125 C 269.95109 315.75745 269.81753 325.55908 270.28125 362.34375 C 270.78567 402.35757 271.08221 409.15975 272.53125 412.78125 C 274.70873 418.22333 278.7393 420.66008 288.0625 422.125 C 303.98334 424.62658 308.02877 426.70037 312.03125 434.46875 C 314.54873 439.3549 314.6521 439.42123 321.34375 440.65625 C 331.78375 442.58308 337.09438 446.53912 341.1875 455.5 C 343.35252 460.23979 343.47945 461.86605 343.78125 488 C 343.95592 503.125 344.30867 516.09919 344.5625 516.84375 C 344.67912 517.18585 344.91229 517.45898 345.1875 517.625 C 350.62858 515.89869 355.99713 513.99989 361.28125 511.9375 C 362.74486 510.8709 362.40354 509.78079 361.4375 507.46875 C 359.65315 503.1982 359.3749 447.76689 361.09375 438.46875 C 363.64128 424.68789 369.97888 418.886 384.40625 417.125 L 389.5 416.5 L 390.25 406 C 391.41789 389.61795 390.19295 363.37336 388.03125 358.40625 C 385.57712 352.76728 381.30827 350.01185 373.21875 348.84375 C 354.78378 346.18182 353.01115 345.75341 348.71875 343.03125 C 341.08833 338.19219 338.05429 328.31618 338 308 C 337.9685 296.20546 336.81906 291.92238 332.34375 286.96875 C 326.02059 279.96977 321.52258 279 295.34375 279 L 272.75 279 z M 70.15625 281.71875 C 50.539596 281.8712 47.382864 282.91522 44.25 286.25 C 39.009858 291.82788 39 291.79678 39 350.125 L 39 403.4375 C 41.438426 407.40988 43.986286 411.29397 46.625 415.125 C 46.63811 415.14403 46.643135 415.16847 46.65625 415.1875 C 47.03511 415.52624 47.34249 415.70727 47.5 415.65625 C 48.143049 415.44796 48.519065 401.07461 48.5625 375.40625 C 48.62061 341.0664 48.852088 334.90538 50.25 331.28125 C 52.6882 324.96014 55.688247 321.50822 61.375 318.375 L 66.5 315.53125 L 93.5 314.875 C 108.35 314.51767 121.87489 313.79756 123.5625 313.25 C 132.43575 310.37104 135.21431 305.53739 135.8125 291.84375 L 136.21875 282.15625 L 95.875 281.8125 C 85.072498 281.71867 76.695135 281.66793 70.15625 281.71875 z M 411.25 282.03125 C 392.23232 282.14503 393.99238 283.53024 394 290.4375 C 394.0114 300.79623 397.73547 308.17229 404.6875 311.59375 C 408.04358 313.24545 411.81288 313.51141 436.5 313.96875 L 464.5 314.5 L 469.8125 317.4375 C 475.65176 320.67066 478.16609 323.63499 480.6875 330.1875 C 482.10538 333.87219 482.43378 340.24168 482.78125 373.75 C 483.0051 395.3375 483.54127 413 484 413 C 484.45872 413 486.45516 410.4125 488.4375 407.25 L 492.0625 401.5 L 491.78125 348 C 491.51586 296.77647 491.4149 294.33195 489.5 290.5625 C 488.21006 288.02327 486.07989 285.8931 483.5 284.5625 C 479.68095 282.59279 477.61765 282.49331 438.03125 282.1875 C 426.24249 282.09643 417.58923 281.99332 411.25 282.03125 z M 27.0625 301.4375 C 25.532663 301.57296 23.34456 303.30451 22.375 305.625 C 21.294256 308.21158 21 315.66738 21 339.34375 L 21 368.5 C 22.944146 373.07571 24.997375 377.62184 27.1875 382.0625 C 28.560088 381.88766 28.566556 372.24268 28.75 343.90625 C 28.893857 321.68467 28.810209 302.98928 28.5625 302.34375 C 28.30089 301.662 27.75788 301.37593 27.0625 301.4375 z M 512.90625 310.15625 C 511.88637 310.14428 510.82017 310.17406 509.71875 310.21875 L 502.5 310.5 L 502.25 344.75 C 502.06819 368.41526 502.29746 379 503.03125 379 C 503.61537 379 504.97022 377.0875 506.03125 374.75 C 507.52919 371.44997 507.95898 368.15301 508 360 C 508.11345 337.45671 511.07418 327.87187 519 324.375 C 522.13771 322.99065 523.22684 321.84563 524 319.0625 C 524.54309 317.10754 524.99694 314.72255 525 313.78125 C 525.007 311.66058 520.0454 310.24001 512.90625 310.15625 z M 8.5625 318.125 C 6.799171 318.13061 6.0533341 319.37774 6.3125 322.59375 C 7.4874965 327.89229 8.793644 333.13698 10.28125 338.3125 C 10.289135 338.32152 10.30466 338.33527 10.3125 338.34375 C 11.381596 339.49947 12.017356 335.5771 11.78125 327.90625 C 11.507265 319.00476 11.382562 318.49033 9.25 318.1875 C 9.0022834 318.15232 8.7794921 318.12431 8.5625 318.125 z M 401.5 349.5 L 401.25 420.75 C 401.10883 459.9375 401.3338 491.99935 401.75 492 C 401.75987 492.00002 401.79809 491.97185 401.8125 491.96875 C 406.77676 488.97023 411.62927 485.8398 416.375 482.53125 C 419.12206 480.53248 421.11735 478.91183 421.21875 478.53125 C 421.372 477.95604 421.27514 451.175 421 419 C 420.55734 367.23722 420.31806 360.0618 418.84375 356.8125 C 416.5637 351.78739 412.8153 349.57327 406.59375 349.53125 L 401.5 349.5 z M 127.875 351.96875 C 124.68091 352.14223 121.12452 352.86389 119.3125 353.96875 C 112.29127 358.24984 112.51919 355.82009 112.25 422.1875 L 112.03125 481.375 C 118.2611 485.78793 124.66756 489.93952 131.28125 493.8125 C 131.67511 491.95329 132.02018 464.12038 132.03125 430.25 C 132.04685 382.39651 132.35248 364.9857 133.3125 360.40625 C 134.01591 357.05087 134.42946 353.78837 134.21875 353.15625 C 133.88923 352.16771 131.06909 351.79527 127.875 351.96875 z M 435.84375 397.15625 C 435.47033 397.15563 435.08678 397.16083 434.71875 397.1875 L 430.5 397.5 L 430.25 433 C 430.10531 452.52212 430.19219 469.09166 430.46875 469.8125 C 430.89233 470.91632 431.68062 470.91121 434.3125 468.84375 C 434.69469 468.526 435.08837 468.22611 435.46875 467.90625 C 435.94965 467.50186 436.42826 467.09525 436.90625 466.6875 C 437.09963 466.51809 437.3568 466.27594 437.5625 466.09375 C 439.07475 464.75432 440.88371 463.12704 443.15625 461.03125 L 450.53125 454.21875 C 451.07767 453.683 451.61446 453.13419 452.15625 452.59375 L 451.84375 430.09375 C 451.55629 410.53242 451.26132 407.04406 449.6875 404.15625 C 447.51493 400.16981 441.44504 397.16551 435.84375 397.15625 z M 96 400.1875 C 91.046566 400.19066 86.387201 402.4654 83.5625 406.3125 C 81.628293 408.94678 81.481211 410.72112 81.1875 432.96875 L 80.90625 455.5625 C 87.227202 461.67052 93.845631 467.5074 100.75 472.96875 C 100.75638 472.9738 100.77487 472.9637 100.78125 472.96875 C 101.75578 472.84145 101.95565 465.15203 101.75 436.75 L 101.5 400.5 L 97 400.21875 C 96.667587 400.19857 96.330229 400.18729 96 400.1875 z M 387.28125 427.15625 C 386.38093 427.1761 385.27268 427.4015 383.875 427.625 C 378.57978 428.47174 373.87855 431.73152 371.8125 436 C 370.35055 439.0204 370.08303 444.08084 369.8125 473.75 C 369.5441 503.18644 369.68584 507.85511 370.9375 507.96875 C 376.38076 505.59126 381.75326 503.03833 387 500.3125 C 387.17625 500.21382 387.39727 500.09419 387.5625 500 C 391.50515 497.75241 392.32923 496.74511 392.0625 495.5 C 391.82686 494.4 391.47928 478.80553 391.28125 460.84375 C 390.95558 431.304 391.18263 427.07022 387.28125 427.15625 z M 271.15625 433 L 270 436.53125 C 267.22879 444.92809 260.81967 449.15 247.34375 451.5 C 239.94257 452.79066 238.04056 453.54336 235.3125 456.1875 C 231.553 459.83135 229 466.51646 229 472.6875 L 229 477 L 234.84375 477 C 245.71754 477 252.00162 480.95848 256.0625 490.375 C 257.85969 494.54237 258.37864 498.0336 258.78125 509.125 C 259.05322 516.6172 258.97372 524.41207 258.59375 526.4375 C 258.13948 528.85901 257.90794 529.6514 256.59375 529.84375 C 258.09093 529.89078 259.59025 529.94658 261.09375 529.96875 L 261.125 529.96875 C 274.91879 530.16977 288.49504 529.30791 301.75 527.46875 C 303.22057 525.73276 303.43236 509.20974 302.34375 479.15625 L 301.6875 461 L 294.5625 461 C 281.76691 461 275.22195 466.22042 273.125 478.125 C 271.98088 484.62028 269.54969 489.46514 267.9375 488.46875 C 265.77053 487.12949 263.74111 481.33687 263.84375 476.78125 C 264.0785 466.36133 271.74919 455.95947 281.71875 452.5625 C 284.26122 451.6962 289.32673 451 292.96875 451 C 296.78575 451 300.12079 450.50421 300.8125 449.8125 C 303.97097 446.65403 300.50046 437.79595 294.9375 434.8125 C 292.27639 433.38533 289.30103 433 281.34375 433 L 271.15625 433 z M 313.5 451.5 L 313.25 488.75 C 313.11833 507.45734 313.27425 523.00916 313.625 525.5625 C 320.34466 524.31608 326.96617 522.80679 333.5 521.0625 L 333.5 491.96875 C 333.5 464.1777 333.38083 462.30021 331.46875 459 C 329.04408 454.81507 324.14261 452.18 318 451.78125 L 313.5 451.5 z M 145.53125 453.34375 C 144.51841 453.35545 143.73327 453.4565 143.34375 453.71875 C 142.51901 454.27402 142.08443 461.29366 141.90625 477.46875 L 141.65625 499.625 C 148.0865 503.01254 154.67481 506.10753 161.40625 508.96875 C 163.02805 508.93433 163.10628 507.29342 162.8125 486.25 C 162.46385 461.27601 161.87872 458.55189 156.21875 455.625 C 153.63924 454.29109 148.56977 453.30865 145.53125 453.34375 z M 237.25 487.125 C 236.51042 487.11421 235.73146 487.14053 234.90625 487.1875 L 229.5 487.5 L 229.21875 506.9375 C 229.04012 519.68618 229.3333 526.70827 230.03125 527.40625 C 230.13467 527.50967 230.31827 527.63927 230.5625 527.75 C 237.35994 528.63251 244.23531 529.26656 251.1875 529.625 L 249.5 529.5 L 248.90625 512 C 248.5337 500.89894 247.8511 493.51408 247.03125 491.8125 C 245.53698 488.71114 242.42708 487.20051 237.25 487.125 z M 218.5 498.5 L 213.25 498.71875 C 207.15999 498.97064 202.68813 500.98452 200.34375 504.5625 C 198.47724 507.41115 197.0793 519.21122 198.1875 521.46875 C 198.19982 521.47195 198.20643 521.4968 198.21875 521.5 C 204.36194 523.09425 210.596 524.43699 216.90625 525.59375 C 218.38631 525.28131 218.5 523.72908 218.5 512 L 218.5 498.5 z "
     id="path3808" />
</svg>
