<?xml version="1.0" encoding="utf-8"?>
<!-- Generator: Adobe Illustrator 16.0.3, SVG Export Plug-In . SVG Version: 6.00 Build 0)  -->
<!DOCTYPE svg PUBLIC "-//W3C//DTD SVG 1.1//EN" "http://www.w3.org/Graphics/SVG/1.1/DTD/svg11.dtd">
<svg version="1.1" id="Layer_1" xmlns="http://www.w3.org/2000/svg" xmlns:xlink="http://www.w3.org/1999/xlink" x="0px" y="0px"
	 width="100px" height="85px" viewBox="0 1.5 100 85" enable-background="new 0 1.5 100 85" xml:space="preserve">
<g>
	<path fill="#263B80" d="M49.95,59.137h5.554c2.994,0,6.082-0.726,8.354-2.752l-0.87,4.441c-1.303,0.097-2.897,0.238-4.633,0.238
		H44.397c1.063-1.639,1.208-4.149,1.208-6.324V36.587c0-2.174,0-4.687-1.062-6.327h16.849l0.193,3.718
		c-1.689-1.449-4.295-1.787-7.144-1.787H49.95v11.54c3.72,0,7.629,0,11.348-0.336c-1.69,2.751-7.146,2.751-10.141,2.751H49.95
		V59.137L49.95,59.137z"/>
	<path fill="#263B80" d="M73.021,54.74c0,2.175,0,4.687,1.063,6.324h-6.471c1.063-1.639,1.063-4.149,1.063-6.324V36.587
		c0-2.174,0.095-4.687-0.969-6.327h14.975c1.204,0,2.218,0,2.218,0.433v3.769h-0.239c-1.352-2.223-4.394-2.271-6.665-2.271h-4.975
		v12.411c3.718,0,7.629,0,11.348-0.338c-1.687,2.752-7.147,2.752-10.141,2.752h-1.207V54.74L73.021,54.74z"/>
	<path fill="#C4932C" d="M22.258,27.486c-0.146,0.353,0.005,0.767,0.342,0.932c0.338,0.165,0.74,0.023,0.911-0.321
		c0.097-0.194,9.939-19.435,33.923-19.435c25.027,0,35.198,20.559,36.015,34.377c0.439,7.445-2.09,16.672-6.824,24.08
		c-4.045,6.335-11.382,14.238-23.376,15.9c-0.376,0.054-0.642,0.43-0.596,0.822c0.049,0.391,0.391,0.688,0.771,0.643
		c19.924-2.44,35.088-20.002,35.088-40.85c0-22.648-17.861-41.079-39.664-41.143H58.57C42.728,2.557,28.486,12.352,22.258,27.486
		L22.258,27.486z"/>
	<path fill="#263B80" d="M20.845,61.58c5.338,12.27,16.9,21.249,30.918,22.904c0.37,0.041,0.705-0.233,0.75-0.604
		c0.047-0.368-0.211-0.722-0.582-0.771c-11.693-1.566-19.53-8.584-23.474-14.535c-2.459-3.709-4.337-7.899-5.497-12.066l8.68-20.502
		c0.145-0.387,0.289-0.723,0.628-0.723c0.336,0,0.336,0.577,0.336,1.061v16.03c0,2.706,0,6.28-0.868,8.69h7.098
		c-1.063-1.929-1.255-4.149-1.496-6.324c-0.629-5.791-0.388-11.83-0.388-17.624c0-2.416-0.144-5.022,0.967-6.857h-4.926
		c-1.208,0-1.544,1.014-1.979,2.028l-8.355,20.136c-0.289,0.677-0.435,1.16-0.868,1.16c-0.387,0-0.532-0.822-0.773-1.546
		L14.16,30.983c-0.196-0.626-0.919-0.724-1.499-0.724H6.385c1.159,0.724,1.208,1.399,1.208,2.704v12.071
		c0,5.216-0.194,12.846-1.979,15.405L5.18,61.064h5.744c-1.06-1.59-1.06-4.729-1.06-8.494l0.047-15.697c0-0.723,0-1.591,0.433-1.591
		c0.435,0,0.773,1.158,1.304,2.558L20.845,61.58L20.845,61.58z"/>
</g>
</svg>
